<?xml version="1.0" encoding="UTF-8"?>
<!DOCTYPE svg PUBLIC "-//W3C//DTD SVG 1.1//EN" "http://www.w3.org/Graphics/SVG/1.1/DTD/svg11.dtd">
<svg xmlns="http://www.w3.org/2000/svg" version="1.1" width="372px" height="686px" style="shape-rendering:geometricPrecision; text-rendering:geometricPrecision; image-rendering:optimizeQuality; fill-rule:evenodd; clip-rule:evenodd" xmlns:xlink="http://www.w3.org/1999/xlink">

<g><path style="opacity:1" fill="#000000" d="M 209.5,4.5 C 211.167,4.5 212.833,4.5 214.5,4.5C 214.677,11.032 214.177,17.3653 213,23.5C 220.835,36.9161 228.168,50.5827 235,64.5C 241.32,81.0891 240.986,97.4224 234,113.5C 229.387,116.223 224.554,118.556 219.5,120.5C 225.375,127.113 232.375,132.28 240.5,136C 250.385,143.941 257.885,153.107 263,163.5C 265.364,168.347 266.197,173.347 265.5,178.5C 263.885,179.154 262.218,179.654 260.5,180C 262.957,181.512 262.957,182.846 260.5,184C 284.197,195.896 297.031,215.062 299,241.5C 297.89,243.243 296.39,244.576 294.5,245.5C 286.721,246.389 279.055,246.389 271.5,245.5C 268.614,247.514 267.447,250.18 268,253.5C 269.968,256.813 271.968,260.146 274,263.5C 281.677,272.873 289.344,282.206 297,291.5C 300.834,296.497 304.167,301.83 307,307.5C 309.675,313.033 311.175,318.867 311.5,325C 311.055,329.337 310.222,333.504 309,337.5C 317.484,346.001 324.484,355.667 330,366.5C 332.703,373.338 335.703,380.005 339,386.5C 341.185,394.159 341.518,401.825 340,409.5C 334.114,417.749 327.28,418.916 319.5,413C 312.659,405.632 304.993,399.299 296.5,394C 292.675,392.372 288.842,392.205 285,393.5C 284.625,396 283.792,398.333 282.5,400.5C 283.847,404.888 285.347,409.221 287,413.5C 296.561,426.408 306.561,439.074 317,451.5C 327.664,470.83 332.997,491.496 333,513.5C 332.312,526.005 326.146,534.338 314.5,538.5C 311.01,536.545 307.344,535.045 303.5,534C 297.24,526.406 290.406,519.573 283,513.5C 282.228,513.645 281.561,513.978 281,514.5C 279.419,518.73 278.752,523.064 279,527.5C 282.515,537.895 286.181,548.228 290,558.5C 290.846,567.553 290.513,576.553 289,585.5C 287.402,590.543 284.235,594.209 279.5,596.5C 269.076,589.226 261.909,591.56 258,603.5C 259.972,617.031 256.139,628.531 246.5,638C 241.255,640.76 235.921,643.26 230.5,645.5C 227.227,653.719 224.394,662.052 222,670.5C 215.174,678.931 207.007,680.431 197.5,675C 194.894,673.062 193.061,670.562 192,667.5C 186.902,679.982 179.569,681.649 170,672.5C 167.059,667.228 163.726,662.228 160,657.5C 158.837,651.532 157.837,645.532 157,639.5C 156.167,638.667 155.333,637.833 154.5,637C 127.766,635.895 121.266,623.728 135,600.5C 137.059,593.422 136.225,586.589 132.5,580C 129.451,577.768 126.284,576.601 123,576.5C 117.618,580.112 112.118,583.612 106.5,587C 103.366,587.79 100.366,587.457 97.5,586C 94.3754,582.887 91.3754,579.72 88.5,576.5C 87.1136,572.339 85.7803,568.172 84.5,564C 85.9981,559.187 87.4981,554.353 89,549.5C 92.8996,543.471 96.2329,537.137 99,530.5C 101.158,522.96 98.1584,518.96 90,518.5C 88.5,518.667 87,518.833 85.5,519C 81.7187,521.637 77.8854,524.137 74,526.5C 71.8252,525.745 69.6585,524.912 67.5,524C 63.8233,520.931 60.3233,517.765 57,514.5C 54.1512,506.58 52.3179,498.413 51.5,490C 56.3954,468.976 64.2287,449.142 75,430.5C 76.2841,424.403 73.9507,420.403 68,418.5C 56.2076,422.975 46.041,429.808 37.5,439C 33.7974,440.672 30.2974,440.172 27,437.5C 19.7413,426.689 18.0746,415.022 22,402.5C 29.1453,390.377 35.6453,377.877 41.5,365C 45.9817,358.523 50.8151,352.356 56,346.5C 59.4234,337.73 63.7567,329.396 69,321.5C 70.6987,311.593 67.0321,306.926 58,307.5C 45.0847,313.694 32.0847,319.694 19,325.5C 11.8718,326.626 7.70515,323.46 6.5,316C 9.23447,292.954 15.7345,271.12 26,250.5C 29.0912,245.986 32.4245,241.653 36,237.5C 40.6783,233.321 45.1783,228.988 49.5,224.5C 51.1083,223.682 52.7749,223.015 54.5,222.5C 61.6552,212.743 70.6552,205.076 81.5,199.5C 86.6211,194.883 90.7878,189.549 94,183.5C 95.3248,179.572 95.6582,175.572 95,171.5C 93.7453,170.789 92.5786,169.956 91.5,169C 84.5946,168.739 77.9279,167.405 71.5,165C 65.5242,157.04 64.8575,148.54 69.5,139.5C 73.0367,130.483 77.2034,121.816 82,113.5C 85.8051,109.359 89.6384,105.193 93.5,101C 102.399,93.5367 111.732,86.5367 121.5,80C 127.186,78.4454 132.353,75.9454 137,72.5C 137.982,71.2411 138.315,69.9078 138,68.5C 135.96,66.6469 133.627,65.3136 131,64.5C 132.664,44.8173 143.164,32.3173 162.5,27C 173.952,24.7592 185.286,22.0925 196.5,19C 200.783,17.2801 203.283,14.1134 204,9.5C 206.182,8.06357 208.016,6.3969 209.5,4.5 Z"/></g>
</svg>
