<?xml version="1.0" encoding="UTF-8"?>
<!DOCTYPE svg PUBLIC "-//W3C//DTD SVG 1.1//EN" "http://www.w3.org/Graphics/SVG/1.1/DTD/svg11.dtd">
<svg xmlns="http://www.w3.org/2000/svg" version="1.1" width="372px" height="686px" style="shape-rendering:geometricPrecision; text-rendering:geometricPrecision; image-rendering:optimizeQuality; fill-rule:evenodd; clip-rule:evenodd" xmlns:xlink="http://www.w3.org/1999/xlink">
<g><path style="opacity:1" fill="#000000" d="M 205.5,17.5 C 208.244,18.0717 209.077,19.7383 208,22.5C 203.279,29.2755 199.612,36.6089 197,44.5C 196.333,46.1667 196.333,47.8333 197,49.5C 203.441,63.7457 211.275,77.0791 220.5,89.5C 218.423,92.1192 216.257,92.1192 214,89.5C 207.4,78.6311 201.067,67.6311 195,56.5C 191.506,62.4878 188.839,68.8211 187,75.5C 185.121,84.3476 182.621,93.0142 179.5,101.5C 179.5,104.167 179.5,106.833 179.5,109.5C 182.865,118.563 187.032,127.23 192,135.5C 195.21,138.009 198.043,140.842 200.5,144C 207.408,148.189 214.408,152.189 221.5,156C 226.05,160.447 230.384,165.114 234.5,170C 234.237,171.946 233.237,172.612 231.5,172C 227.113,167.613 222.779,163.279 218.5,159C 214.112,156.139 209.446,153.806 204.5,152C 198.312,146.81 192.479,141.31 187,135.5C 184.524,130.41 181.857,125.41 179,120.5C 171.913,142.276 166.747,164.443 163.5,187C 164.776,189.281 166.443,191.281 168.5,193C 182.998,200.054 197.665,206.721 212.5,213C 216.131,216.81 220.131,220.143 224.5,223C 231.793,225.976 239.127,228.976 246.5,232C 249.922,233.406 250.255,235.239 247.5,237.5C 237.586,233.476 227.919,228.976 218.5,224C 215.017,220.761 211.35,217.761 207.5,215C 194.353,209.591 181.353,203.924 168.5,198C 166.241,196.285 164.074,194.452 162,192.5C 159.481,198.939 157.815,205.606 157,212.5C 156.667,224.167 156.333,235.833 156,247.5C 155.643,254.109 154.81,260.609 153.5,267C 154.892,271.959 156.725,276.793 159,281.5C 162.716,285.548 166.05,289.882 169,294.5C 185.075,307.786 201.242,320.953 217.5,334C 230.246,338.804 242.913,343.804 255.5,349C 258.87,350.346 261.87,352.179 264.5,354.5C 263.307,356.384 261.641,356.884 259.5,356C 244.443,349.09 229.11,342.756 213.5,337C 200.079,324.909 186.079,313.575 171.5,303C 165.308,296.109 159.474,288.942 154,281.5C 155.823,313.728 156.823,346.061 157,378.5C 157.706,382.364 158.539,386.197 159.5,390C 158.806,392.748 157.306,393.582 155,392.5C 154.519,388.469 153.853,384.469 153,380.5C 152.987,347.456 151.821,314.456 149.5,281.5C 151.64,258.384 152.807,235.051 153,211.5C 158.529,188.29 163.529,164.623 168,140.5C 170.126,134.857 172.126,129.191 174,123.5C 174.61,120.173 175.11,116.839 175.5,113.5C 170.899,114.914 166.899,117.414 163.5,121C 142.716,132.591 120.883,141.424 98,147.5C 94.5519,148.061 93.3852,146.894 94.5,144C 118.062,138.053 140.395,129.053 161.5,117C 165.244,114.045 169.078,111.211 173,108.5C 177.284,96.0315 180.951,83.3648 184,70.5C 186.344,65.5022 188.344,60.5022 190,55.5C 188.235,58.473 185.735,60.6396 182.5,62C 174.733,65.3659 166.9,68.5326 159,71.5C 157.338,71.6125 156.171,70.9458 155.5,69.5C 163.289,65.7783 171.289,62.2783 179.5,59C 181.001,57.7485 182.668,56.7485 184.5,56C 186.167,53.6667 187.833,51.3333 189.5,49C 190.449,48.3828 191.282,48.5494 192,49.5C 192.452,46.1228 193.118,42.7895 194,39.5C 198.03,32.2941 201.863,24.9608 205.5,17.5 Z"/></g>
<g><path style="opacity:1" fill="#000000" d="M 147.5,203.5 C 149.252,203.418 150.252,204.251 150.5,206C 149.349,207.823 148.182,209.656 147,211.5C 137.297,221.535 127.963,231.868 119,242.5C 107.449,251.718 95.6158,260.552 83.5,269C 78.5,273.333 73.5,277.667 68.5,282C 63.1667,284.333 57.8333,286.667 52.5,289C 50.2305,289.758 48.0639,289.591 46,288.5C 45.3828,287.551 45.5494,286.718 46.5,286C 53.1141,284.462 59.4474,282.128 65.5,279C 81.2147,266.284 97.2147,253.951 113.5,242C 124.269,228.727 135.602,215.894 147.5,203.5 Z"/></g>
<g><path style="opacity:1" fill="#000000" d="M 143.5,287.5 C 146.076,287.722 146.91,289.055 146,291.5C 141.795,300.357 136.795,308.691 131,316.5C 107.516,343.982 83.3498,370.815 58.5,397C 55.9085,397.301 55.0752,396.134 56,393.5C 65.4677,386.369 73.1344,377.703 79,367.5C 100.172,346.668 119.505,324.335 137,300.5C 138.699,295.882 140.866,291.549 143.5,287.5 Z"/></g>
<g><path style="opacity:1" fill="#000000" d="M 267.5,359.5 C 272.043,360.293 276.376,361.793 280.5,364C 284.758,367.101 284.424,368.768 279.5,369C 275.81,366.488 271.81,364.488 267.5,363C 266.316,361.855 266.316,360.688 267.5,359.5 Z"/></g>
<g><path style="opacity:1" fill="#000000" d="M 158.5,396.5 C 173.866,404.195 189.866,410.695 206.5,416C 214.112,419.139 221.446,422.806 228.5,427C 239.119,434.618 249.452,442.618 259.5,451C 263.492,454.829 265.992,459.329 267,464.5C 266.282,465.451 265.449,465.617 264.5,465C 261.55,460.382 258.216,456.048 254.5,452C 243.448,443.281 232.114,434.947 220.5,427C 201.386,418.964 182.219,411.131 163,403.5C 162.333,412.5 162.333,421.5 163,430.5C 164.892,448.88 167.059,467.214 169.5,485.5C 169.473,487.704 168.473,488.538 166.5,488C 165.137,486.055 164.303,483.888 164,481.5C 161.061,454.21 158.895,426.877 157.5,399.5C 157.685,398.416 158.018,397.416 158.5,396.5 Z"/></g>
<g><path style="opacity:1" fill="#000000" d="M 148.5,402.5 C 151.244,403.072 152.077,404.738 151,407.5C 146.368,419.77 139.034,430.103 129,438.5C 122.654,449.862 115.321,460.529 107,470.5C 103.762,476.743 100.095,482.743 96,488.5C 92.5196,491.588 90.853,490.921 91,486.5C 97.8957,477.726 104.562,468.726 111,459.5C 117.374,446.783 125.707,435.45 136,425.5C 141.21,418.414 145.377,410.747 148.5,402.5 Z"/></g>
<g><path style="opacity:1" fill="#000000" d="M 167.5,491.5 C 168.239,491.369 168.906,491.536 169.5,492C 171.795,495.297 174.462,498.297 177.5,501C 196.042,509.622 214.376,518.622 232.5,528C 236.009,532.34 239.676,536.507 243.5,540.5C 242.652,542.283 241.319,542.783 239.5,542C 235.797,538.633 232.464,534.966 229.5,531C 211.744,521.788 193.744,513.122 175.5,505C 174.667,504.167 173.833,503.333 173,502.5C 172.445,519.171 175.445,535.171 182,550.5C 184.029,560.538 186.195,570.538 188.5,580.5C 187.187,584.449 185.687,584.449 184,580.5C 181.519,564.762 177.519,549.428 172,534.5C 169.568,520.122 168.068,505.788 167.5,491.5 Z"/></g>
<g><path style="opacity:1" fill="#000000" d="M 159.5,499.5 C 162.076,499.722 162.91,501.055 162,503.5C 150.577,511.588 141.244,521.588 134,533.5C 132.093,536.287 130.593,536.12 129.5,533C 137.315,519.866 147.315,508.699 159.5,499.5 Z"/></g>
<g><path style="opacity:1" fill="#000000" d="M 189.5,586.5 C 191.679,586.84 193.512,587.84 195,589.5C 202.534,602.693 213.701,611.193 228.5,615C 232.734,618.612 236.734,622.445 240.5,626.5C 239.652,628.283 238.319,628.783 236.5,628C 229.893,620.194 221.56,615.194 211.5,613C 204.333,608.5 198.5,602.667 194,595.5C 194.201,604.432 195.868,613.099 199,621.5C 199.667,630.833 199.667,640.167 199,649.5C 197.333,653.5 195.667,657.5 194,661.5C 192.093,664.287 190.593,664.12 189.5,661C 195.316,649.188 197.15,636.688 195,623.5C 194.197,620.756 193.197,618.089 192,615.5C 191.049,607.202 189.549,599.036 187.5,591C 188.044,589.415 188.711,587.915 189.5,586.5 Z"/></g>
<g><path style="opacity:1" fill="#000000" d="M 179.5,590.5 C 181.686,590.511 182.519,591.511 182,593.5C 172.747,599.391 167.747,607.724 167,618.5C 166.282,619.451 165.449,619.617 164.5,619C 162.896,613.649 163.396,608.482 166,603.5C 169.736,598.262 174.236,593.929 179.5,590.5 Z"/></g>
</svg>
